<svg xmlns="http://www.w3.org/2000/svg"
     xmlns:xlink="http://www.w3.org/1999/xlink"
     width="400"
     height="400">
  <title>Pizza Crust 20cm</title>
  <g transform="rotate(-30, 200, 200)">
  <rect
    x="170"
    y="200"
    width="12.0"
    height="12.0"
    rx="4"
    style="fill: Gold; stroke: Yellow; stroke-width: 2px;"
  />
  <rect
    x="180"
    y="150"
    width="11.8"
    height="11.8"
    rx="4"
    style="fill: Gold; stroke: Yellow; stroke-width: 2px;"
  />
  <rect
    x="220"
    y="170"
    width="11.9"
    height="11.9"
    rx="4"
    style="fill: Gold; stroke: Yellow; stroke-width: 2px;"
  />
  <rect
    x="220"
    y="220"
    width="11.7"
    height="11.7"
    rx="4"
    style="fill: Gold; stroke: Yellow; stroke-width: 2px;"
  />
  <rect
    x="270"
    y="190"
    width="11.7"
    height="11.7"
    rx="4"
    style="fill: Gold; stroke: Yellow; stroke-width: 2px;"
  />
  <rect
    x="260"
    y="240"
    width="11.5"
    height="11.5"
    rx="4"
    style="fill: Gold; stroke: Yellow; stroke-width: 2px;"
  />
  <rect
    x="210"
    y="270"
    width="11.8"
    height="11.8"
    rx="4"
    style="fill: Gold; stroke: Yellow; stroke-width: 2px;"
  />
  <rect
    x="160"
    y="250"
    width="11.8"
    height="11.8"
    rx="4"
    style="fill: Gold; stroke: Yellow; stroke-width: 2px;"
  />
  <rect
    x="130"
    y="220"
    width="11.7"
    height="11.7"
    rx="4"
    style="fill: Gold; stroke: Yellow; stroke-width: 2px;"
  />
  <rect
    x="120"
    y="180"
    width="11.6"
    height="11.6"
    rx="4"
    style="fill: Gold; stroke: Yellow; stroke-width: 2px;"
  />
  <rect
    x="250"
    y="140"
    width="11.6"
    height="11.6"
    rx="4"
    style="fill: Gold; stroke: Yellow; stroke-width: 2px;"
  />
  <rect
    x="210"
    y="120"
    width="11.5"
    height="11.5"
    rx="4"
    style="fill: Gold; stroke: Yellow; stroke-width: 2px;"
  />
  <rect
    x="140"
    y="140"
    width="11.5"
    height="11.5"
    rx="4"
    style="fill: Gold; stroke: Yellow; stroke-width: 2px;"
  />
  <rect
    x="100"
    y="150"
    width="11.5"
    height="11.5"
    rx="4"
    style="fill: Gold; stroke: Yellow; stroke-width: 2px;"
  />
  <rect
    x="170"
    y="100"
    width="12.0"
    height="12.0"
    rx="4"
    style="fill: Gold; stroke: Yellow; stroke-width: 2px;"
  />
  <rect
    x="240"
    y="100"
    width="11.8"
    height="11.8"
    rx="4"
    style="fill: Gold; stroke: Yellow; stroke-width: 2px;"
  />
  <rect
    x="300"
    y="160"
    width="11.8"
    height="11.8"
    rx="4"
    style="fill: Gold; stroke: Yellow; stroke-width: 2px;"
  />
  <rect
    x="300"
    y="160"
    width="11.8"
    height="11.8"
    rx="4"
    style="fill: Gold; stroke: Yellow; stroke-width: 2px;"
  />
  <rect
    x="300"
    y="230"
    width="11.8"
    height="11.8"
    rx="4"
    style="fill: Gold; stroke: Yellow; stroke-width: 2px;"
  />
  <rect
    x="260"
    y="280"
    width="12.0"
    height="12.0"
    rx="4"
    style="fill: Gold; stroke: Yellow; stroke-width: 2px;"
  />
  <rect
    x="200"
    y="310"
    width="11.5"
    height="11.5"
    rx="4"
    style="fill: Gold; stroke: Yellow; stroke-width: 2px;"
  />
  <rect
    x="160"
    y="290"
    width="11.8"
    height="11.8"
    rx="4"
    style="fill: Gold; stroke: Yellow; stroke-width: 2px;"
  />
  <rect
    x="120"
    y="260"
    width="11.6"
    height="11.6"
    rx="4"
    style="fill: Gold; stroke: Yellow; stroke-width: 2px;"
  />
  <rect
    x="90"
    y="210"
    width="11.5"
    height="11.5"
    rx="4"
    style="fill: Gold; stroke: Yellow; stroke-width: 2px;"
  />
  <rect
    x="200"
    y="40"
    width="12.0"
    height="12.0"
    rx="4"
    style="fill: Gold; stroke: Yellow; stroke-width: 2px;"
  />
  <rect
    x="250"
    y="50"
    width="12.0"
    height="12.0"
    rx="4"
    style="fill: Gold; stroke: Yellow; stroke-width: 2px;"
  />
  <rect
    x="300"
    y="90"
    width="12.0"
    height="12.0"
    rx="4"
    style="fill: Gold; stroke: Yellow; stroke-width: 2px;"
  />
  <rect
    x="340"
    y="120"
    width="11.8"
    height="11.8"
    rx="4"
    style="fill: Gold; stroke: Yellow; stroke-width: 2px;"
  />
  <rect
    x="340"
    y="180"
    width="12.1"
    height="12.1"
    rx="4"
    style="fill: Gold; stroke: Yellow; stroke-width: 2px;"
  />
  <rect
    x="350"
    y="250"
    width="12.1"
    height="12.1"
    rx="4"
    style="fill: Gold; stroke: Yellow; stroke-width: 2px;"
  />
  <rect
    x="310"
    y="290"
    width="12.1"
    height="12.1"
    rx="4"
    style="fill: Gold; stroke: Yellow; stroke-width: 2px;"
  />
  <rect
    x="280"
    y="340"
    width="12.1"
    height="12.1"
    rx="4"
    style="fill: Gold; stroke: Yellow; stroke-width: 2px;"
  />
  <rect
    x="230"
    y="360"
    width="12.1"
    height="12.1"
    rx="4"
    style="fill: Gold; stroke: Yellow; stroke-width: 2px;"
  />
  <rect
    x="170"
    y="340"
    width="12.1"
    height="12.1"
    rx="4"
    style="fill: Gold; stroke: Yellow; stroke-width: 2px;"
  />
  <rect
    x="120"
    y="320"
    width="12.0"
    height="12.0"
    rx="4"
    style="fill: Gold; stroke: Yellow; stroke-width: 2px;"
  />
  <rect
    x="60"
    y="260"
    width="11.9"
    height="11.9"
    rx="4"
    style="fill: Gold; stroke: Yellow; stroke-width: 2px;"
  />
  <rect
    x="40"
    y="200"
    width="11.8"
    height="11.8"
    rx="4"
    style="fill: Gold; stroke: Yellow; stroke-width: 2px;"
  />
  <rect
    x="60"
    y="150"
    width="12.0"
    height="12.0"
    rx="4"
    style="fill: Gold; stroke: Yellow; stroke-width: 2px;"
  />
  <rect
    x="100"
    y="100"
    width="12.1"
    height="12.1"
    rx="4"
    style="fill: Gold; stroke: Yellow; stroke-width: 2px;"
  />
  <rect
    x="140"
    y="50"
    width="11.7"
    height="11.7"
    rx="4"
    style="fill: Gold; stroke: Yellow; stroke-width: 2px;"
  />
  </g>
</svg>